<svg width="1920" height="525" viewBox="0 0 1920 525" fill="none" xmlns="http://www.w3.org/2000/svg">
<path d="M0 0H1920V429.878H961.864H0V0Z" fill="#FFA5BA"/>
<path d="M1328.95 429.272H1919.8L1733.08 495.091C1677.94 514.527 1618.06 515.953 1562.06 499.163L1328.95 429.272Z" fill="#FFA5BA"/>
<path d="M0 429.272H609.489L331.596 502.191C275.106 517.014 215.371 513.536 160.983 492.257L0 429.272Z" fill="#FFA5BA"/>
<path d="M580.599 429.272H1323.36L1012.43 506.975C967.566 518.186 920.606 517.946 875.861 506.276L580.599 429.272Z" fill="#FFA5BA"/>
<path d="M459.282 224.523C460.221 222.88 461.282 221.841 462.482 221.423C463.666 221.02 464.759 221.082 465.743 221.609C466.758 222.151 467.466 223.035 467.835 224.275C468.204 225.484 467.974 226.941 467.158 228.677C463.343 236.707 458.359 242.876 452.206 247.217C446.083 251.557 438.946 253.727 430.793 253.727C424.27 253.727 418.24 252.239 412.702 249.263C407.195 246.256 402.949 242.318 399.965 237.482C397.873 234.056 396.35 230.414 395.411 226.569C394.458 222.725 393.996 218.881 393.996 215.037C393.996 209.503 394.858 204.186 396.58 199.102C398.503 193.149 401.395 188.22 405.257 184.283C409.102 180.361 413.394 177.431 418.117 175.478C422.824 173.494 427.485 172.502 432.085 172.502C438.607 172.502 443.991 174.331 448.268 177.958C452.575 181.601 454.729 186.763 454.729 193.459C454.729 196.978 454.067 200.249 452.76 203.256C451.483 206.232 449.929 208.526 448.083 210.138C446.268 211.719 444.637 212.293 443.161 211.874C442.053 211.719 441.161 211.239 440.515 210.448C439.853 209.673 439.53 208.759 439.53 207.72C439.53 207.147 439.73 206.526 440.146 205.86C442.068 203.178 443.438 200.76 444.268 198.605C445.084 196.42 445.499 194.451 445.499 192.715C445.499 189.289 444.176 186.67 441.561 184.841C438.976 182.98 435.777 182.05 431.962 182.05C428.639 182.05 425.224 182.841 421.747 184.407C418.255 185.941 415.102 188.313 412.271 191.537C409.441 194.73 407.364 198.884 406.056 204C405.072 208.263 404.58 212.153 404.58 215.657C404.58 221.082 405.395 225.624 407.041 229.297C408.718 232.987 410.887 235.932 413.563 238.164C416.271 240.365 419.163 241.946 422.24 242.938C425.316 243.899 428.239 244.364 431.039 244.364C437.192 244.364 442.607 242.628 447.283 239.156C451.991 235.684 455.99 230.817 459.282 224.523Z" fill="#FAF2E1"/>
<path d="M526.955 224.523C527.724 222.957 528.693 221.981 529.847 221.609C530.985 221.237 532.062 221.33 533.047 221.857C534.062 222.399 534.785 223.283 535.2 224.523C535.6 225.732 535.477 227.112 534.831 228.677C532.893 233.188 530.647 237.342 528.063 241.14C525.509 244.953 522.678 248.023 519.571 250.379C516.448 252.688 513.064 253.851 509.418 253.851C505.68 253.851 502.542 252.704 500.004 250.441C497.496 248.131 495.543 245.263 494.158 241.822C493.45 239.838 492.527 239.761 491.389 241.574C488.882 245.418 486.282 248.147 483.574 249.759C480.898 251.324 478.237 252.115 475.575 252.115C472.499 252.115 469.622 251.185 466.961 249.325C464.33 247.434 462.284 245.093 460.807 242.318C460.407 241.497 460.054 240.551 459.761 239.466C459.438 238.148 459.208 236.846 459.085 235.56C458.961 234.242 458.9 232.925 458.9 231.592C458.9 226.554 459.977 221.919 462.1 217.703C464.192 213.486 467.084 210.123 470.776 207.596C474.468 205.038 478.652 203.752 483.328 203.752C486.113 203.752 489.128 204.341 492.374 205.488C493.804 206.077 494.896 205.612 495.635 204.124C496.373 202.682 497.142 201.69 497.973 201.148C498.788 200.621 499.588 200.342 500.373 200.342C501.188 200.342 501.911 200.559 502.527 200.962C503.142 201.38 503.603 201.923 503.942 202.574C504.188 203.116 504.28 203.597 504.249 204C504.203 204.418 504.142 204.914 504.065 205.488C503.573 208.511 503.034 211.998 502.465 215.967C501.88 219.935 501.604 223.888 501.604 227.809C501.604 230.506 501.788 233.142 502.157 235.746C502.527 238.319 503.326 240.458 504.557 242.194C505.819 243.899 507.649 244.736 510.034 244.736C512.126 244.736 514.156 243.729 516.125 241.698C518.125 239.637 520.063 237.032 521.909 233.886C523.786 230.754 525.478 227.623 526.955 224.523ZM475.698 242.876C477.867 242.876 479.836 242.101 481.605 240.52C483.405 238.908 484.99 236.8 486.343 234.196C487.728 231.592 488.866 228.848 489.728 225.949C490.589 223.019 491.22 220.214 491.635 217.517C491.881 216.199 491.42 215.16 490.282 214.416C489.451 213.967 488.343 213.548 486.959 213.176C485.605 212.804 483.959 212.618 482.036 212.618C479.236 212.618 476.775 213.486 474.652 215.222C472.56 216.928 470.914 219.237 469.73 222.167C468.576 225.112 468.007 228.336 468.007 231.84C468.007 234.738 468.591 237.296 469.791 239.528C471.022 241.76 472.991 242.876 475.698 242.876Z" fill="#FAF2E1"/>
<path d="M535.674 201.334C535.997 200.187 535.797 199.024 535.059 197.861C534.151 196.42 533.613 195.242 533.459 194.327C533.336 193.428 533.274 192.638 533.274 191.971C533.274 189.863 533.92 188.235 535.243 187.073C536.597 185.879 538.074 185.275 539.674 185.275C541.058 185.275 542.35 185.817 543.55 186.887C544.781 187.925 545.427 189.661 545.519 192.095C545.596 192.762 545.704 193.335 545.827 193.831C545.95 194.327 546.212 194.823 546.627 195.319C548.504 197.427 550.442 199.101 552.411 200.342C554.411 201.582 556.288 202.853 558.01 204.124C559.764 205.364 561.179 206.96 562.256 208.898C563.364 210.805 563.918 213.393 563.918 216.649C563.918 218.555 563.81 220.214 563.61 221.609C563.395 222.973 563.148 224.446 562.872 226.011C562.579 227.546 562.318 229.53 562.072 231.964C561.702 235.73 562.087 238.955 563.241 241.636C564.425 244.287 566.563 245.604 569.64 245.604C572.224 245.604 574.563 244.581 576.655 242.504C578.778 240.396 580.747 237.714 582.562 234.444C584.408 231.189 586.023 227.871 587.423 224.523C588.161 222.787 589.1 221.733 590.254 221.361C591.438 220.989 592.53 221.097 593.515 221.671C594.499 222.26 595.176 223.206 595.545 224.523C595.945 225.81 595.807 227.189 595.115 228.677C592.807 233.855 590.407 238.412 587.915 242.38C585.408 246.348 582.654 249.449 579.67 251.681C576.716 253.913 573.286 255.029 569.394 255.029C565.333 255.029 562.01 253.944 559.426 251.805C556.841 249.697 555.026 246.907 554.011 243.434C552.98 239.962 552.626 236.18 552.965 232.088C553.365 227.546 553.795 224.074 554.257 221.671C554.703 219.237 554.934 217.315 554.934 215.905C554.934 214.463 554.334 213.207 553.149 212.122C551.949 211.053 549.657 209.503 546.258 207.472C544.489 206.402 543.32 206.836 542.75 208.774C541.427 212.618 540.258 215.765 539.243 218.199C538.258 220.601 537.412 222.601 536.72 224.213C536.013 225.794 535.382 227.282 534.813 228.677C534.228 230.165 533.351 231.096 532.167 231.468C531.013 231.809 529.89 231.7 528.782 231.158C527.644 230.584 526.844 229.716 526.383 228.553C525.937 227.406 526.121 226.058 526.936 224.523C528.629 221.268 530.167 217.858 531.551 214.292C532.982 210.696 534.351 206.387 535.674 201.334Z" fill="#FAF2E1"/>
<path d="M596.127 201.334C596.45 200.187 596.25 199.024 595.511 197.861C594.604 196.42 594.065 195.242 593.912 194.327C593.788 193.428 593.727 192.638 593.727 191.971C593.727 189.863 594.373 188.235 595.696 187.073C597.05 185.879 598.526 185.275 600.126 185.275C601.511 185.275 602.803 185.817 604.003 186.887C605.234 187.925 605.88 189.661 605.972 192.095C606.049 192.762 606.157 193.335 606.28 193.831C606.403 194.327 606.664 194.823 607.08 195.319C608.956 197.427 610.895 199.101 612.864 200.342C614.863 201.582 616.74 202.853 618.463 204.124C620.217 205.364 621.632 206.96 622.709 208.898C623.816 210.805 624.37 213.393 624.37 216.649C624.37 218.555 624.263 220.214 624.063 221.609C623.847 222.973 623.601 224.446 623.324 226.011C623.032 227.546 622.77 229.53 622.524 231.964C622.155 235.73 622.54 238.955 623.693 241.636C624.878 244.287 627.016 245.604 630.093 245.604C632.677 245.604 635.015 244.581 637.107 242.504C639.23 240.396 641.199 237.714 643.015 234.444C644.861 231.189 646.476 227.871 647.876 224.523C648.614 222.787 649.552 221.733 650.706 221.361C651.891 220.989 652.983 221.097 653.967 221.671C654.952 222.26 655.629 223.206 655.998 224.523C656.398 225.81 656.259 227.189 655.567 228.677C653.26 233.855 650.86 238.412 648.368 242.38C645.86 246.348 643.107 249.449 640.123 251.681C637.169 253.913 633.739 255.029 629.847 255.029C625.785 255.029 622.463 253.944 619.878 251.805C617.294 249.697 615.479 246.907 614.463 243.434C613.433 239.962 613.079 236.18 613.417 232.088C613.817 227.546 614.248 224.074 614.71 221.671C615.156 219.237 615.386 217.315 615.386 215.905C615.386 214.463 614.786 213.207 613.602 212.122C612.402 211.053 610.11 209.503 606.71 207.472C604.941 206.402 603.772 206.836 603.203 208.774C601.88 212.618 600.711 215.765 599.696 218.199C598.711 220.601 597.865 222.601 597.173 224.213C596.465 225.794 595.834 227.282 595.265 228.677C594.681 230.165 593.804 231.096 592.619 231.468C591.466 231.809 590.343 231.7 589.235 231.158C588.097 230.584 587.297 229.716 586.835 228.553C586.389 227.406 586.574 226.058 587.389 224.523C589.081 221.268 590.62 217.858 592.004 214.292C593.435 210.696 594.804 206.387 596.127 201.334Z" fill="#FAF2E1"/>
<path d="M665.133 189.553C663.564 189.553 661.964 188.778 660.333 187.197C658.733 185.585 657.964 183.383 658.056 180.562C658.21 178.377 658.872 176.78 660.025 175.788C661.21 174.765 662.502 174.238 663.902 174.238C665.502 174.238 666.932 174.827 668.209 175.974C669.471 177.09 670.117 178.749 670.117 180.934C670.117 181.182 670.086 181.43 670.055 181.678C670.009 181.926 669.994 182.174 669.994 182.422C670.148 184.872 669.748 186.67 668.763 187.817C667.779 188.979 666.563 189.553 665.133 189.553ZM695.53 224.523C696.099 223.283 696.914 222.57 697.991 222.353C699.099 222.151 700.145 222.291 701.129 222.787C702.114 223.283 702.852 224.074 703.344 225.143C703.837 226.182 703.791 227.36 703.221 228.677C701.252 233.359 698.945 237.59 696.33 241.388C693.699 245.201 690.699 248.209 687.346 250.441C683.977 252.626 680.177 253.727 675.962 253.727C670.578 253.727 666.317 251.696 663.164 247.651C659.995 243.605 657.964 237.652 657.072 229.793C656.826 227.654 656.533 226.864 656.21 227.437C656.118 227.608 656.041 227.809 655.964 228.057C655.872 228.305 655.795 228.522 655.718 228.677C655.226 229.84 654.441 230.475 653.38 230.6C652.349 230.724 651.334 230.506 650.303 229.917C649.288 229.344 648.503 228.584 647.965 227.623C647.396 226.678 647.35 225.639 647.842 224.523C649.288 221.547 650.349 218.927 651.042 216.649C651.734 214.385 652.349 212.246 652.888 210.262C653.411 208.247 654.072 206.077 654.857 203.752C655.749 201.07 656.98 199.288 658.549 198.419C660.148 197.52 661.687 197.412 663.164 198.109C664.64 198.776 665.717 200.078 666.425 202.016C667.163 203.922 667.117 206.34 666.302 209.27C665.963 210.185 665.763 211.223 665.686 212.37C665.317 218.245 665.41 223.655 665.994 228.615C666.609 233.576 667.748 237.575 669.44 240.582C671.163 243.605 673.501 245.108 676.455 245.108C679.116 245.108 681.577 244.116 683.839 242.132C686.131 240.117 688.238 237.528 690.176 234.382C692.145 231.251 693.93 227.964 695.53 224.523Z" fill="#FAF2E1"/>
<path d="M703.236 228.677C702.498 230.165 701.544 231.127 700.406 231.53C699.298 231.902 698.237 231.84 697.206 231.344C696.144 230.817 695.421 229.948 695.052 228.739C694.683 227.546 694.868 226.135 695.606 224.523C696.883 221.888 698.237 219.051 699.667 216.029C701.098 213.021 702.682 210.247 704.405 207.72C706.159 205.162 708.051 203.163 710.066 201.706C712.112 200.218 714.389 199.691 716.896 200.094C719.312 200.435 721.481 201.52 723.419 203.38C725.388 205.209 726.695 207.627 727.357 210.634C727.849 212.215 728.588 212.37 729.572 211.13C732.556 207.534 735.495 204.961 738.371 203.38C741.233 201.768 743.909 200.962 746.371 200.962C749.201 200.962 751.785 201.892 754.124 203.752C756.493 205.581 758.246 208.371 759.354 212.122C760 214.478 760.292 216.881 760.215 219.315C760.123 221.717 760.092 224.709 760.092 228.305C760.092 232.646 760.861 235.978 762.431 238.288C764.03 240.567 766.015 241.698 768.399 241.698C770.399 241.698 772.23 241.016 773.876 239.652C775.552 238.288 777.029 236.614 778.306 234.63C779.567 232.615 780.675 230.693 781.629 228.863C782.613 227.003 783.352 225.562 783.844 224.523C784.582 223.128 785.505 222.291 786.613 222.043C787.751 221.795 788.828 221.95 789.813 222.477C790.797 223.02 791.505 223.872 791.966 225.019C792.458 226.135 792.351 227.36 791.659 228.677C788.613 235.219 785.351 240.567 781.875 244.736C778.383 248.922 774.06 250.999 768.891 250.999C763.677 250.999 759.369 249.371 755.97 246.1C752.555 242.845 750.862 237.451 750.862 229.917C750.862 226.569 750.924 223.392 751.047 220.369C751.17 217.315 750.893 214.819 750.247 212.866C749.586 210.882 748.047 209.89 745.632 209.89C744.232 209.89 742.694 210.495 741.017 211.688C739.371 212.897 737.725 214.385 736.095 216.153C734.495 217.889 733.033 219.671 731.726 221.485C730.449 223.268 729.48 224.756 728.834 225.949C728.341 226.786 728.095 227.778 728.095 228.925C728.003 232.026 727.988 235.56 728.034 239.528C728.065 243.496 727.972 246.876 727.726 249.635C727.557 251.696 727.188 253.432 726.619 254.843C726.034 256.285 724.788 257.013 722.865 257.013C720.727 257.013 719.419 256.269 718.927 254.781C718.465 253.324 718.281 251.774 718.373 250.131C718.619 243.853 718.773 238.148 718.865 233.018C718.988 227.856 719.05 223.19 719.05 219.005C719.05 217.687 719.004 216.277 718.927 214.788C718.881 213.269 718.681 211.967 718.312 210.882C717.942 209.813 717.219 209.27 716.158 209.27C715.081 209.27 713.912 210.014 712.651 211.502C711.42 212.99 710.189 214.835 708.959 217.021C707.759 219.222 706.682 221.392 705.697 223.531C704.713 225.639 703.882 227.36 703.236 228.677Z" fill="#FAF2E1"/>
<path d="M863.422 224.523C864.191 223.206 865.114 222.446 866.191 222.229C867.252 222.027 868.283 222.198 869.267 222.725C870.283 223.268 871.006 224.089 871.421 225.205C871.821 226.29 871.744 227.437 871.175 228.677C867.114 237.203 863.483 243.217 860.284 246.721C857.084 250.239 853.453 251.991 849.392 251.991C845.731 251.991 842.839 251.061 840.716 249.201C838.624 247.31 837.024 244.907 835.917 242.008C834.84 239.079 834.025 235.963 833.455 232.646C832.871 229.344 832.302 226.228 831.732 223.283C831.148 220.353 830.317 217.951 829.21 216.091C828.133 214.199 826.533 213.238 824.41 213.238C822.149 213.238 819.995 214.013 817.949 215.533C815.934 217.021 814.073 218.912 812.35 221.175C810.658 223.407 809.119 225.701 807.735 228.057C806.381 230.413 805.289 232.429 804.473 234.072C804.55 238.164 804.812 241.481 805.273 243.992C805.72 246.472 805.95 248.643 805.95 250.503C805.95 254.099 804.55 255.897 801.766 255.897C799.92 255.975 798.628 255.355 797.889 254.037C797.151 252.75 796.69 251.092 796.536 249.015C796.29 246.581 796.059 243.496 795.859 239.776C795.69 236.056 795.613 232.274 795.613 228.429C795.613 224.585 795.644 221.407 795.736 218.881C794.905 220.834 794.09 222.787 793.275 224.771C792.444 226.724 791.875 228.026 791.552 228.677C790.967 229.84 790.106 230.522 788.967 230.723C787.86 230.94 786.783 230.785 785.706 230.289C784.598 229.793 783.829 229.049 783.368 228.057C782.922 227.065 783.06 225.887 783.799 224.523C785.075 222.384 786.26 220.152 787.367 217.827C788.475 215.471 789.721 212.789 791.121 209.766C792.552 206.759 794.397 203.194 796.659 199.101C797.151 194.436 797.828 189.615 798.689 184.655C799.551 179.663 800.797 175.028 802.443 170.766C804.12 166.518 806.335 163.062 809.088 160.411C811.827 157.776 815.319 156.443 819.549 156.443C822.164 156.443 824.472 157.171 826.441 158.613C828.44 160.023 830.01 161.837 831.117 164.069C832.255 166.27 832.84 168.58 832.84 171.014C832.84 176.191 831.579 180.996 829.087 185.461C826.625 189.894 823.256 193.924 818.995 197.551C814.765 201.194 810.088 204.465 804.966 207.348C804.873 208.635 804.843 210.076 804.843 211.688C804.843 213.3 804.797 215.998 804.72 219.749C808.365 214.091 811.98 210.138 815.549 207.906C819.118 205.643 822.441 204.496 825.518 204.496C828.917 204.496 831.609 205.426 833.578 207.286C835.578 209.115 837.117 211.471 838.193 214.354C839.255 217.207 840.116 220.276 840.778 223.531C841.47 226.802 842.147 229.886 842.808 232.77C843.454 235.668 844.3 238.024 845.331 239.838C846.393 241.667 847.869 242.566 849.761 242.566C851.607 242.566 853.3 241.574 854.869 239.59C856.422 237.575 857.899 235.172 859.299 232.398C860.73 229.592 862.099 226.972 863.422 224.523ZM806.443 197.241C811.934 193.49 816.303 189.305 819.549 184.717C822.779 180.097 824.41 175.524 824.41 171.014C824.41 168.828 823.887 167.293 822.872 166.425C821.887 165.557 820.857 165.123 819.795 165.123C817.611 165.123 815.688 166.239 814.011 168.472C812.365 170.673 810.996 173.416 809.888 176.718C808.781 180.035 807.919 183.445 807.304 186.949C806.719 190.467 806.443 193.506 806.443 196.063V197.241Z" fill="#FAF2E1"/>
<path d="M923.401 224.523C924.048 223.206 924.94 222.399 926.047 222.105C927.186 221.826 928.278 221.919 929.309 222.415C930.324 222.911 931.062 223.717 931.524 224.833C932.016 225.918 931.908 227.189 931.216 228.677C930.062 231.375 928.262 234.056 925.801 236.738C923.371 239.389 920.402 241.543 916.879 243.186C913.341 244.798 909.31 245.48 904.757 245.232C903.48 245.155 902.434 245.604 901.619 246.597C899.804 248.953 897.527 250.797 894.789 252.115C892.035 253.479 888.712 254.161 884.82 254.161C880.344 254.161 876.59 253.045 873.56 250.813C870.514 248.581 868.222 245.589 866.668 241.822C865.115 238.071 864.33 233.886 864.33 229.297C864.33 225.794 864.868 222.291 865.93 218.819C867.007 215.347 868.53 212.246 870.545 209.518C872.591 206.759 875.037 204.713 877.867 203.38C878.436 203.132 878.913 202.884 879.283 202.636C879.652 202.357 880.082 202.047 880.575 201.706C882.821 200.14 885.405 199.35 888.328 199.35C892.22 199.35 895.619 200.512 898.542 202.822C901.496 205.1 903.803 208.015 905.495 211.564C907.218 215.13 908.08 218.741 908.08 222.415C908.08 224.244 907.987 226.073 907.834 227.933C907.664 229.762 907.418 231.592 907.095 233.452C906.926 234.289 907.126 234.971 907.711 235.498C908.28 236.04 909.157 236.18 910.356 235.932C913.756 235.358 916.464 233.917 918.479 231.592C920.525 229.235 922.171 226.879 923.401 224.523ZM895.158 233.328C895.896 233.824 896.573 233.932 897.189 233.638C897.835 233.359 898.25 232.801 898.419 231.964C898.665 230.6 898.865 229.235 899.034 227.871C899.188 226.507 899.281 225.066 899.281 223.531C899.281 221.299 898.788 218.989 897.804 216.587C896.85 214.199 895.543 212.215 893.866 210.634C892.22 209.022 890.328 208.216 888.205 208.216C888.205 208.216 888.159 208.216 888.082 208.216C887.989 208.216 887.651 208.433 887.036 208.836C886.451 209.208 885.959 209.689 885.559 210.262C885.39 210.51 885.097 210.851 884.697 211.254C884.282 211.673 883.913 212.045 883.59 212.37C883.251 212.711 883.005 213.207 882.851 213.858C882.682 214.571 882.605 215.13 882.605 215.533C882.605 217.61 883.298 219.811 884.697 222.167C886.082 224.523 887.774 226.724 889.743 228.739C891.712 230.724 893.512 232.258 895.158 233.328ZM873.129 229.545C873.129 232.646 873.745 235.405 874.975 237.792C876.237 240.148 877.836 242.039 879.775 243.434C881.744 244.798 883.744 245.48 885.805 245.48C887.559 245.48 889.097 245.108 890.42 244.364C891.312 243.868 891.727 243.279 891.651 242.566C891.558 241.822 891.112 241.202 890.297 240.706C887.543 238.893 884.944 236.66 882.482 234.01C880.052 231.375 877.99 228.491 876.267 225.391C875.652 224.492 875.052 224.089 874.483 224.213C873.898 224.337 873.529 225.004 873.375 226.197C873.283 226.786 873.222 227.344 873.191 227.871C873.145 228.414 873.129 228.972 873.129 229.545Z" fill="#FAF2E1"/>
<path d="M1010.85 254.533C1007.77 254.533 1005.16 253.758 1003.04 252.239C1000.94 250.751 999.235 248.813 997.928 246.411C996.651 243.977 995.728 241.264 995.159 238.288C994.574 235.312 994.205 232.398 994.051 229.545C992.728 232.32 991.498 234.8 990.359 236.986C989.252 239.141 987.683 241.187 985.683 243.124C984.114 244.783 982.391 245.976 980.514 246.721C978.668 247.465 976.838 247.837 975.038 247.837C971.3 247.837 967.854 246.566 964.7 243.992C961.531 241.388 959.439 238.133 958.362 234.196C958.039 232.708 957.809 231.266 957.686 229.855C957.532 228.414 957.439 227.065 957.439 225.825C957.439 219.966 958.655 215.13 961.07 211.316C963.485 207.519 966.516 204.666 970.177 202.76C973.823 200.822 977.561 199.846 981.376 199.846C983.499 199.846 985.621 200.156 987.714 200.776C989.836 201.396 991.713 202.388 993.313 203.752C993.713 197.303 994.205 191.196 994.79 185.399C995.359 179.57 996.097 174.362 997.005 169.774C997.943 165.154 999.036 161.527 1000.27 158.923C1001.5 156.288 1003.04 154.955 1004.88 154.955C1005.62 154.955 1006.39 155.249 1007.22 155.823C1008.11 156.412 1008.79 157.466 1009.25 158.985C1009.74 160.473 1009.94 162.194 1009.87 164.131C1009.62 169.309 1009.07 174.145 1008.2 178.64C1007.37 183.151 1006.48 187.677 1005.5 192.219C1004.51 196.73 1003.62 201.566 1002.85 206.728C1002.6 211.316 1002.48 215.502 1002.48 219.253C1002.48 228.553 1003.25 235.234 1004.82 239.28C1006.42 243.341 1008.39 245.356 1010.73 245.356C1013.31 245.356 1015.97 243.419 1018.73 239.528C1021.51 235.653 1024.45 230.646 1027.53 224.523C1028.26 223.035 1029.2 222.136 1030.36 221.795C1031.54 221.469 1032.65 221.593 1033.68 222.167C1034.69 222.756 1035.42 223.64 1035.83 224.833C1036.23 225.996 1036.11 227.282 1035.46 228.677C1034.14 231.53 1032.54 234.475 1030.66 237.482C1028.82 240.458 1026.8 243.248 1024.63 245.852C1022.49 248.457 1020.26 250.549 1017.93 252.115C1015.62 253.727 1013.26 254.533 1010.85 254.533ZM974.484 239.094C976.407 239.094 978.253 238.226 980.022 236.49C981.822 234.723 983.468 232.491 984.945 229.793C986.452 227.065 987.744 224.151 988.821 221.051C989.883 217.951 990.575 215.068 990.913 212.37C989.436 211.053 987.975 210.076 986.544 209.456C985.145 208.805 983.545 208.464 981.745 208.464C977.191 208.464 973.499 210.138 970.669 213.486C967.838 216.835 966.423 220.989 966.423 225.949C966.423 229.266 967.131 232.274 968.577 235.002C970.054 237.73 972.023 239.094 974.484 239.094Z" fill="#FAF2E1"/>
<path d="M1054.74 254.905C1049.2 254.905 1044.34 253.634 1040.15 251.123C1036 248.612 1032.83 245.418 1030.61 241.574C1028.37 237.73 1027.23 233.762 1027.23 229.669C1027.23 224.678 1028.2 219.966 1030.12 215.533C1032 211.115 1034.57 207.41 1037.81 204.434C1041.04 201.458 1044.66 199.691 1048.64 199.101C1049.14 199.024 1049.6 198.962 1050.06 198.915C1050.51 198.884 1050.95 198.853 1051.41 198.853C1054.98 198.853 1058.06 199.753 1060.64 201.52C1063.26 203.256 1064.58 205.968 1064.58 209.642C1064.58 213.486 1063.37 217.067 1060.95 220.369C1058.57 223.64 1055.5 226.321 1051.78 228.429C1048.04 230.537 1044.11 231.84 1039.97 232.336C1039.01 232.429 1038.38 232.708 1038.06 233.204C1037.72 233.7 1037.77 234.366 1038.18 235.188C1039.86 238.536 1042.09 241.202 1044.89 243.186C1047.72 245.139 1051.49 246.1 1056.21 246.1C1059.44 246.1 1062.63 245.108 1065.75 243.124C1068.86 241.109 1071.69 238.396 1074.24 235.002C1076.83 231.623 1078.95 227.918 1080.64 223.903C1081.21 222.508 1082.06 221.609 1083.16 221.237C1084.27 220.865 1085.35 220.927 1086.42 221.423C1087.53 221.919 1088.29 222.818 1088.7 224.089C1089.1 225.329 1088.86 226.864 1087.96 228.677C1084.15 236.784 1079.44 243.186 1073.87 247.899C1068.33 252.564 1061.95 254.905 1054.74 254.905ZM1040.09 223.779C1042.46 223.376 1044.86 222.508 1047.29 221.175C1049.75 219.811 1051.8 218.261 1053.44 216.525C1055.12 214.757 1055.97 213.037 1055.97 211.378C1055.97 209.441 1055.24 208.325 1053.81 208.03C1052.37 207.751 1051.06 207.689 1049.87 207.844C1047 208.263 1044.24 209.797 1041.63 212.432C1039 215.083 1037.35 218.044 1036.71 221.299C1036.54 222.136 1036.71 222.787 1037.2 223.283C1037.69 223.779 1038.38 223.996 1039.29 223.903C1039.44 223.826 1039.72 223.779 1040.09 223.779Z" fill="#FAF2E1"/>
<path d="M1187.95 224.523C1188.89 222.88 1189.95 221.841 1191.15 221.423C1192.33 221.02 1193.43 221.082 1194.41 221.609C1195.42 222.151 1196.13 223.035 1196.5 224.275C1196.87 225.484 1196.64 226.941 1195.82 228.677C1192.01 236.707 1187.03 242.876 1180.87 247.217C1174.75 251.557 1167.61 253.727 1159.46 253.727C1152.94 253.727 1146.91 252.239 1141.37 249.263C1135.86 246.256 1131.62 242.318 1128.63 237.482C1126.54 234.056 1125.02 230.414 1124.08 226.569C1123.12 222.725 1122.66 218.881 1122.66 215.037C1122.66 209.503 1123.52 204.186 1125.25 199.102C1127.17 193.149 1130.06 188.22 1133.92 184.283C1137.77 180.361 1142.06 177.431 1146.78 175.478C1151.49 173.494 1156.15 172.502 1160.75 172.502C1167.27 172.502 1172.66 174.331 1176.93 177.958C1181.24 181.601 1183.4 186.763 1183.4 193.459C1183.4 196.978 1182.73 200.249 1181.43 203.256C1180.15 206.232 1178.6 208.526 1176.75 210.138C1174.93 211.719 1173.3 212.293 1171.83 211.874C1170.72 211.719 1169.83 211.239 1169.18 210.448C1168.52 209.673 1168.2 208.759 1168.2 207.72C1168.2 207.147 1168.4 206.526 1168.81 205.86C1170.73 203.178 1172.1 200.76 1172.93 198.605C1173.75 196.42 1174.17 194.451 1174.17 192.715C1174.17 189.289 1172.84 186.67 1170.23 184.841C1167.64 182.98 1164.44 182.05 1160.63 182.05C1157.31 182.05 1153.89 182.841 1150.41 184.407C1146.92 185.941 1143.77 188.313 1140.94 191.537C1138.11 194.73 1136.03 198.884 1134.72 204C1133.74 208.263 1133.25 212.153 1133.25 215.657C1133.25 221.082 1134.06 225.624 1135.71 229.297C1137.38 232.987 1139.55 235.932 1142.23 238.164C1144.94 240.365 1147.83 241.946 1150.91 242.938C1153.98 243.899 1156.91 244.364 1159.71 244.364C1165.86 244.364 1171.27 242.628 1175.95 239.156C1180.66 235.684 1184.66 230.817 1187.95 224.523Z" fill="#FAF2E1"/>
<path d="M1247.93 224.523C1248.58 223.206 1249.47 222.399 1250.58 222.105C1251.71 221.826 1252.81 221.919 1253.84 222.415C1254.85 222.911 1255.59 223.717 1256.05 224.833C1256.55 225.918 1256.44 227.189 1255.75 228.677C1254.59 231.375 1252.79 234.056 1250.33 236.738C1247.9 239.389 1244.93 241.543 1241.41 243.186C1237.87 244.798 1233.84 245.48 1229.29 245.232C1228.01 245.155 1226.96 245.604 1226.15 246.597C1224.33 248.953 1222.06 250.797 1219.32 252.115C1216.56 253.479 1213.24 254.161 1209.35 254.161C1204.87 254.161 1201.12 253.045 1198.09 250.813C1195.04 248.581 1192.75 245.589 1191.2 241.822C1189.64 238.071 1188.86 233.886 1188.86 229.297C1188.86 225.794 1189.4 222.291 1190.46 218.819C1191.54 215.347 1193.06 212.246 1195.07 209.518C1197.12 206.759 1199.57 204.713 1202.4 203.38C1202.97 203.132 1203.44 202.884 1203.81 202.636C1204.18 202.357 1204.61 202.047 1205.1 201.706C1207.35 200.14 1209.93 199.35 1212.86 199.35C1216.75 199.35 1220.15 200.512 1223.07 202.822C1226.03 205.1 1228.33 208.015 1230.02 211.564C1231.75 215.13 1232.61 218.741 1232.61 222.415C1232.61 224.244 1232.52 226.073 1232.36 227.933C1232.19 229.762 1231.95 231.592 1231.62 233.452C1231.46 234.289 1231.66 234.971 1232.24 235.498C1232.81 236.04 1233.69 236.18 1234.89 235.932C1238.29 235.358 1240.99 233.917 1243.01 231.592C1245.05 229.235 1246.7 226.879 1247.93 224.523ZM1219.69 233.328C1220.43 233.824 1221.1 233.932 1221.72 233.638C1222.36 233.359 1222.78 232.801 1222.95 231.964C1223.19 230.6 1223.39 229.235 1223.56 227.871C1223.72 226.507 1223.81 225.066 1223.81 223.531C1223.81 221.299 1223.32 218.989 1222.33 216.587C1221.38 214.199 1220.07 212.215 1218.4 210.634C1216.75 209.022 1214.86 208.216 1212.73 208.216C1212.73 208.216 1212.69 208.216 1212.61 208.216C1212.52 208.216 1212.18 208.433 1211.56 208.836C1210.98 209.208 1210.49 209.689 1210.09 210.262C1209.92 210.51 1209.63 210.851 1209.23 211.254C1208.81 211.673 1208.44 212.045 1208.12 212.37C1207.78 212.711 1207.53 213.207 1207.38 213.858C1207.21 214.571 1207.13 215.13 1207.13 215.533C1207.13 217.61 1207.83 219.811 1209.23 222.167C1210.61 224.523 1212.3 226.724 1214.27 228.739C1216.24 230.724 1218.04 232.258 1219.69 233.328ZM1197.66 229.545C1197.66 232.646 1198.27 235.405 1199.5 237.792C1200.77 240.148 1202.37 242.039 1204.3 243.434C1206.27 244.798 1208.27 245.48 1210.33 245.48C1212.09 245.48 1213.63 245.108 1214.95 244.364C1215.84 243.868 1216.26 243.279 1216.18 242.566C1216.09 241.822 1215.64 241.202 1214.83 240.706C1212.07 238.893 1209.47 236.66 1207.01 234.01C1204.58 231.375 1202.52 228.491 1200.8 225.391C1200.18 224.492 1199.58 224.089 1199.01 224.213C1198.43 224.337 1198.06 225.004 1197.9 226.197C1197.81 226.786 1197.75 227.344 1197.72 227.871C1197.67 228.414 1197.66 228.972 1197.66 229.545Z" fill="#FAF2E1"/>
<path d="M1360.62 224.523C1361.27 223.206 1362.13 222.446 1363.2 222.229C1364.31 222.027 1365.36 222.198 1366.34 222.725C1367.36 223.268 1368.13 224.089 1368.62 225.205C1369.11 226.29 1369.06 227.437 1368.5 228.677C1366.23 233.359 1363.77 236.955 1361.11 239.466C1358.48 241.993 1355.85 243.729 1353.24 244.674C1350.61 245.635 1348.22 246.1 1346.1 246.1C1340.76 246.1 1336.45 243.899 1333.18 239.466C1329.93 235.048 1328.51 229.034 1328.93 221.423C1329.25 216.308 1329.02 212.773 1328.25 210.82C1327.51 208.836 1326.44 207.844 1325.05 207.844C1323.58 207.844 1321.95 208.635 1320.19 210.2C1318.47 211.735 1316.81 213.579 1315.21 215.719C1313.64 217.827 1312.33 219.811 1311.27 221.671C1310.66 222.585 1310.35 223.655 1310.35 224.895C1310.26 229.948 1310.22 233.917 1310.22 236.8C1310.22 239.652 1310.18 241.822 1310.1 243.31C1310.01 244.767 1309.82 245.79 1309.55 246.411C1309.26 247.031 1308.78 247.589 1308.13 248.085C1307.72 248.457 1307.35 248.705 1307.02 248.829C1306.69 248.953 1306.36 249.061 1306.04 249.139C1305.79 249.232 1305.49 249.263 1305.12 249.263C1303.22 249.263 1301.98 248.457 1301.36 246.845C1300.75 245.201 1300.44 243.403 1300.44 241.45C1300.44 240.303 1300.5 239.141 1300.63 237.978C1300.75 236.784 1300.81 235.777 1300.81 234.94C1300.81 233.297 1300.83 231.638 1300.87 229.979C1300.9 228.29 1300.93 226.631 1300.93 225.019C1300.93 222.043 1300.81 219.284 1300.56 216.711C1300.32 214.153 1299.83 212.107 1299.09 210.572C1298.38 209.007 1297.33 208.216 1295.95 208.216C1294.01 208.216 1292.09 208.883 1290.16 210.2C1288.27 211.487 1286.49 213.052 1284.81 214.912C1283.17 216.742 1281.73 218.447 1280.5 220.059C1279.92 220.896 1279.55 221.919 1279.4 223.159C1279.06 229.111 1278.87 233.746 1278.84 237.048C1278.8 240.319 1278.69 242.923 1278.53 244.86C1278.44 247.31 1278.1 249.387 1277.49 251.123C1276.9 252.859 1275.55 253.727 1273.43 253.727C1272.35 253.727 1271.3 253.386 1270.29 252.735C1269.31 252.068 1268.84 251.169 1268.94 250.007C1269.09 244.302 1269.34 238.955 1269.67 233.948C1270 228.956 1270.17 224.26 1270.17 219.873C1270.17 216.494 1270.17 213.548 1270.17 211.068C1270.17 208.588 1269.58 207.348 1268.44 207.348C1267.37 207.348 1265.81 209.007 1263.77 212.308C1261.75 215.626 1259 221.082 1255.52 228.677C1254.78 230.165 1253.86 231.08 1252.75 231.406C1251.68 231.7 1250.66 231.576 1249.68 231.034C1248.66 230.46 1247.95 229.592 1247.58 228.429C1247.21 227.282 1247.37 225.98 1248.01 224.523C1249.46 221.547 1250.95 218.493 1252.51 215.347C1254.11 212.215 1255.8 209.317 1257.61 206.666C1259.46 204.031 1261.4 201.892 1263.46 200.28C1265.55 198.667 1267.74 197.861 1270.04 197.861C1272.95 197.861 1275.06 198.729 1276.38 200.466C1277.74 202.171 1278.57 204.124 1278.9 206.356C1279.06 207.968 1279.67 208.216 1280.75 207.1C1283.17 204.713 1285.73 202.791 1288.44 201.334C1291.18 199.846 1293.86 199.101 1296.44 199.101C1298.61 199.101 1300.69 199.706 1302.66 200.9C1304.66 202.109 1306.32 204.093 1307.64 206.852C1308.38 208.635 1309.36 208.759 1310.59 207.224C1313.01 204.217 1315.45 202.016 1317.92 200.652C1320.41 199.287 1322.84 198.605 1325.18 198.605C1329.31 198.605 1332.27 199.722 1334.04 201.954C1335.84 204.155 1336.94 206.96 1337.36 210.386C1337.76 213.827 1337.98 217.424 1337.98 221.175C1338.05 227.003 1338.79 231.158 1340.19 233.638C1341.62 236.118 1343.76 237.358 1346.59 237.358C1348.71 237.358 1350.68 236.645 1352.5 235.188C1354.34 233.7 1355.96 231.964 1357.36 229.979C1358.79 227.964 1359.88 226.135 1360.62 224.523Z" fill="#FAF2E1"/>
<path d="M1374.92 285.969C1373.16 285.969 1371.97 284.977 1371.36 282.993C1370.74 281.04 1370.43 278.653 1370.43 275.8C1370.43 270.375 1370.63 264.717 1371.05 258.811C1371.45 252.936 1371.91 247.124 1372.4 241.326C1372.92 235.498 1373.28 229.979 1373.45 224.771C1373.52 223.624 1373.2 222.772 1372.46 222.229C1371.76 221.702 1371.2 221.888 1370.8 222.787C1370.39 223.779 1369.97 224.771 1369.57 225.763C1369.16 226.724 1368.71 227.685 1368.22 228.677C1367.36 230.46 1366.34 231.561 1365.2 231.964C1364.06 232.382 1362.99 232.274 1362 231.654C1360.99 231.003 1360.31 230.041 1359.97 228.801C1359.65 227.561 1359.85 226.135 1360.59 224.523C1361.94 221.717 1363.09 219.191 1364.03 216.959C1364.97 214.726 1365.96 212.556 1366.99 210.448C1368.05 208.309 1369.32 205.984 1370.8 203.504C1371.86 201.814 1372.86 200.652 1373.82 200.032C1374.8 199.412 1376.06 199.102 1377.63 199.102C1379.88 199.102 1381.34 200.016 1382 201.83C1382.65 203.612 1382.99 205.488 1382.99 207.472C1382.99 208.263 1382.99 208.945 1382.99 209.518C1382.99 210.107 1382.99 210.634 1382.99 211.13C1382.99 212.37 1383.25 213.052 1383.79 213.176C1384.35 213.3 1385.02 212.835 1385.75 211.75C1388.91 206.836 1392.06 203.628 1395.23 202.14C1398.43 200.621 1401.4 199.846 1404.15 199.846C1407.38 199.846 1410.26 200.714 1412.77 202.45C1415.31 204.155 1417.29 206.48 1418.74 209.456C1420.21 212.401 1420.95 215.703 1420.95 219.377C1420.95 221.655 1420.77 223.965 1420.4 226.321C1420.03 228.646 1419.43 231.018 1418.61 233.452C1418 235.358 1418 236.304 1418.61 236.304C1418.77 236.304 1418.94 236.304 1419.1 236.304C1419.26 236.304 1419.43 236.304 1419.6 236.304C1422.43 236.304 1425.6 235.374 1429.13 233.514C1432.7 231.623 1435.53 228.615 1437.63 224.523C1438.36 223.035 1439.3 222.105 1440.46 221.733C1441.64 221.361 1442.75 221.407 1443.78 221.857C1444.79 222.322 1445.52 223.144 1445.93 224.337C1446.38 225.5 1446.21 226.941 1445.44 228.677C1442.89 234.63 1439.04 238.908 1433.87 241.512C1428.73 244.085 1423.23 245.356 1417.32 245.356C1416.74 245.356 1416.12 245.356 1415.47 245.356C1414.81 245.356 1414.15 245.325 1413.51 245.232C1412.23 245.155 1411.14 245.48 1410.24 246.225C1407.66 248.333 1405.29 249.852 1403.17 250.751C1401.08 251.65 1399.2 252.115 1397.57 252.115C1395.38 252.115 1393.58 251.51 1392.15 250.317C1390.71 249.123 1389.63 247.635 1388.89 245.852C1388.18 244.039 1387.85 242.287 1387.85 240.582C1387.85 238.148 1388.48 236.304 1389.75 235.064C1390.74 234.242 1391.78 233.669 1392.89 233.328C1394 233.002 1395.18 232.832 1396.46 232.832C1397.94 232.832 1399.45 233.002 1401.01 233.328C1402.61 233.669 1404.18 233.948 1405.75 234.196C1407.18 234.444 1408.18 233.948 1408.77 232.708C1409.75 230.77 1410.49 228.677 1410.98 226.445C1411.47 224.182 1411.72 221.95 1411.72 219.749C1411.72 218.431 1411.44 216.943 1410.92 215.285C1410.38 213.595 1409.54 212.153 1408.4 210.944C1407.24 209.751 1405.71 209.146 1403.78 209.146C1401.11 209.146 1398.63 210.076 1396.34 211.936C1394.08 213.765 1392.05 216.122 1390.25 219.005C1388.48 221.857 1386.98 224.802 1385.75 227.809C1384.55 230.832 1383.68 233.545 1383.11 235.932C1381.88 241.233 1381.02 245.635 1380.52 249.139C1380.03 252.642 1379.75 255.711 1379.72 258.315C1379.68 260.95 1379.62 263.586 1379.54 266.19C1379.54 266.763 1379.63 267.275 1379.85 267.74C1380.05 268.189 1380.31 268.701 1380.65 269.29C1381.29 270.189 1381.71 271.367 1381.88 272.824C1382.03 274.312 1382.12 276.141 1382.12 278.343C1382.12 280.9 1381.4 282.807 1379.97 284.047C1378.57 285.318 1376.89 285.969 1374.92 285.969Z" fill="#FAF2E1"/>
<path d="M1446.32 201.334C1446.64 200.187 1446.44 199.024 1445.71 197.861C1444.8 196.42 1444.26 195.242 1444.11 194.327C1443.98 193.428 1443.92 192.638 1443.92 191.971C1443.92 189.863 1444.57 188.235 1445.89 187.073C1447.24 185.879 1448.72 185.275 1450.32 185.275C1451.71 185.275 1453 185.817 1454.2 186.887C1455.43 187.925 1456.07 189.661 1456.17 192.095C1456.24 192.762 1456.35 193.335 1456.47 193.831C1456.6 194.327 1456.86 194.823 1457.27 195.319C1459.15 197.427 1461.09 199.101 1463.06 200.342C1465.06 201.582 1466.93 202.853 1468.66 204.124C1470.41 205.364 1471.83 206.96 1472.9 208.898C1474.01 210.805 1474.57 213.393 1474.57 216.649C1474.57 218.555 1474.46 220.214 1474.26 221.609C1474.04 222.973 1473.8 224.446 1473.52 226.011C1473.23 227.546 1472.97 229.53 1472.72 231.964C1472.35 235.73 1472.73 238.955 1473.89 241.636C1475.07 244.287 1477.21 245.604 1480.29 245.604C1482.87 245.604 1485.21 244.581 1487.3 242.504C1489.43 240.396 1491.39 237.714 1493.21 234.444C1495.06 231.189 1496.67 227.871 1498.07 224.523C1498.81 222.787 1499.75 221.733 1500.9 221.361C1502.09 220.989 1503.18 221.097 1504.16 221.671C1505.15 222.26 1505.82 223.206 1506.19 224.523C1506.59 225.81 1506.45 227.189 1505.76 228.677C1503.45 233.855 1501.05 238.412 1498.56 242.38C1496.06 246.348 1493.3 249.449 1490.32 251.681C1487.36 253.913 1483.93 255.029 1480.04 255.029C1475.98 255.029 1472.66 253.944 1470.07 251.805C1467.49 249.697 1465.67 246.907 1464.66 243.434C1463.63 239.962 1463.27 236.18 1463.61 232.088C1464.01 227.546 1464.44 224.074 1464.9 221.671C1465.35 219.237 1465.58 217.315 1465.58 215.905C1465.58 214.463 1464.98 213.207 1463.8 212.122C1462.6 211.053 1460.3 209.503 1456.91 207.472C1455.14 206.402 1453.97 206.836 1453.4 208.774C1452.07 212.618 1450.91 215.765 1449.89 218.199C1448.91 220.601 1448.06 222.601 1447.37 224.213C1446.66 225.794 1446.03 227.282 1445.46 228.677C1444.88 230.165 1444 231.096 1442.81 231.468C1441.66 231.809 1440.54 231.7 1439.43 231.158C1438.29 230.584 1437.49 229.716 1437.03 228.553C1436.58 227.406 1436.77 226.058 1437.58 224.523C1439.28 221.268 1440.81 217.858 1442.2 214.292C1443.63 210.696 1445 206.387 1446.32 201.334Z" fill="#FAF2E1"/>
<path d="M1565.72 224.523C1566.49 222.957 1567.46 221.981 1568.61 221.609C1569.75 221.237 1570.83 221.33 1571.81 221.857C1572.83 222.399 1573.55 223.283 1573.97 224.523C1574.37 225.732 1574.24 227.112 1573.6 228.677C1571.66 233.188 1569.41 237.342 1566.83 241.14C1564.28 244.953 1561.45 248.023 1558.34 250.379C1555.22 252.688 1551.83 253.851 1548.19 253.851C1544.45 253.851 1541.31 252.704 1538.77 250.441C1536.26 248.131 1534.31 245.263 1532.93 241.822C1532.22 239.838 1531.3 239.761 1530.16 241.574C1527.65 245.418 1525.05 248.147 1522.34 249.759C1519.67 251.324 1517 252.115 1514.34 252.115C1511.27 252.115 1508.39 251.185 1505.73 249.325C1503.1 247.434 1501.05 245.093 1499.57 242.318C1499.18 241.497 1498.82 240.551 1498.53 239.466C1498.21 238.148 1497.98 236.846 1497.85 235.56C1497.73 234.242 1497.67 232.925 1497.67 231.592C1497.67 226.554 1498.74 221.919 1500.87 217.703C1502.96 213.486 1505.85 210.123 1509.54 207.596C1513.24 205.038 1517.42 203.752 1522.1 203.752C1524.88 203.752 1527.9 204.341 1531.14 205.488C1532.57 206.077 1533.66 205.612 1534.4 204.124C1535.14 202.682 1535.91 201.69 1536.74 201.148C1537.56 200.621 1538.36 200.342 1539.14 200.342C1539.96 200.342 1540.68 200.559 1541.29 200.962C1541.91 201.38 1542.37 201.923 1542.71 202.574C1542.96 203.116 1543.05 203.597 1543.02 204C1542.97 204.418 1542.91 204.914 1542.83 205.488C1542.34 208.511 1541.8 211.998 1541.23 215.967C1540.65 219.935 1540.37 223.888 1540.37 227.809C1540.37 230.506 1540.56 233.142 1540.92 235.746C1541.29 238.319 1542.09 240.458 1543.32 242.194C1544.59 243.899 1546.42 244.736 1548.8 244.736C1550.89 244.736 1552.92 243.729 1554.89 241.698C1556.89 239.637 1558.83 237.032 1560.68 233.886C1562.55 230.754 1564.25 227.623 1565.72 224.523ZM1514.47 242.876C1516.63 242.876 1518.6 242.101 1520.37 240.52C1522.17 238.908 1523.76 236.8 1525.11 234.196C1526.5 231.592 1527.63 228.848 1528.5 225.949C1529.36 223.019 1529.99 220.214 1530.4 217.517C1530.65 216.199 1530.19 215.16 1529.05 214.416C1528.22 213.967 1527.11 213.548 1525.73 213.176C1524.37 212.804 1522.73 212.618 1520.8 212.618C1518 212.618 1515.54 213.486 1513.42 215.222C1511.33 216.928 1509.68 219.237 1508.5 222.167C1507.34 225.112 1506.77 228.336 1506.77 231.84C1506.77 234.738 1507.36 237.296 1508.56 239.528C1509.79 241.76 1511.76 242.876 1514.47 242.876Z" fill="#FAF2E1"/>
<path d="M1629.21 224.523C1629.85 223.128 1630.71 222.322 1631.79 222.105C1632.85 221.903 1633.9 222.089 1634.93 222.663C1635.99 223.252 1636.77 224.089 1637.27 225.205C1637.76 226.29 1637.67 227.437 1637.02 228.677C1633.45 235.374 1629.77 239.9 1626.01 242.256C1622.22 244.581 1618.51 245.728 1614.87 245.728C1614.28 245.728 1613.76 245.713 1613.27 245.666C1612.78 245.635 1612.22 245.573 1611.61 245.48C1610.13 245.403 1609.1 246.023 1608.53 247.341C1607.05 251.185 1604.65 254.006 1601.33 255.835C1598.01 257.695 1594.19 258.625 1589.89 258.625C1586.81 258.625 1583.93 257.943 1581.27 256.579C1578.59 255.215 1576.49 253.308 1574.93 250.875C1573.36 248.441 1572.6 245.666 1572.6 242.566C1572.6 238.644 1573.92 235.467 1576.59 233.018C1579.3 230.537 1582.76 229.297 1586.99 229.297C1589.16 229.297 1591.95 229.917 1595.36 231.158C1596.42 231.53 1597.22 231.499 1597.76 231.034C1598.28 230.537 1598.27 229.84 1597.7 228.925C1596.62 227.189 1594.99 225.066 1592.78 222.539C1590.59 220.028 1587.64 216.757 1583.92 212.742C1582.32 211.177 1581.15 211.378 1580.41 213.362C1579.09 216.463 1577.84 219.253 1576.66 221.733C1575.5 224.182 1574.44 226.492 1573.46 228.677C1572.72 230.165 1571.75 231.127 1570.56 231.53C1569.41 231.902 1568.33 231.871 1567.3 231.406C1566.24 230.909 1565.5 230.072 1565.09 228.863C1564.69 227.67 1564.89 226.228 1565.7 224.523C1567.72 220.524 1569.27 217.315 1570.38 214.912C1571.49 212.479 1572.41 210.433 1573.15 208.774C1573.92 207.084 1574.59 205.364 1575.18 203.628C1575.5 202.512 1575.63 201.458 1575.55 200.466C1575.46 200.063 1575.43 199.644 1575.43 199.225C1575.43 198.822 1575.43 198.45 1575.43 198.109C1575.43 195.18 1576.13 193.025 1577.58 191.661C1579.06 190.266 1580.61 189.553 1582.26 189.553C1583.69 189.553 1584.98 190.095 1586.13 191.165C1587.27 192.204 1587.86 193.754 1587.86 195.815C1587.86 196.404 1587.81 196.993 1587.73 197.613C1587.64 198.202 1587.49 198.822 1587.24 199.473C1586.9 200.807 1587.07 201.985 1587.73 203.008C1590.15 206.402 1592.55 209.379 1594.93 211.936C1597.35 214.509 1599.56 216.897 1601.58 219.129C1603.62 221.33 1605.35 223.624 1606.75 226.011C1608.18 228.367 1609.15 231.096 1609.64 234.196C1609.88 235.606 1610.68 236.428 1612.04 236.676C1612.61 236.769 1613.18 236.831 1613.76 236.862C1614.33 236.908 1614.9 236.924 1615.48 236.924C1618.31 236.924 1620.84 235.854 1623.05 233.7C1625.3 231.514 1627.36 228.46 1629.21 224.523ZM1589.89 249.759C1592.01 249.759 1593.76 249.185 1595.12 248.023C1596.5 246.829 1597.61 245.48 1598.44 243.992C1599.01 242.473 1598.52 241.373 1596.96 240.706C1595.19 240.055 1593.42 239.451 1591.67 238.908C1589.95 238.381 1588.3 238.102 1586.75 238.102C1584.78 238.102 1583.36 238.567 1582.5 239.466C1581.67 240.381 1581.27 241.373 1581.27 242.442C1581.27 245.046 1582.1 246.938 1583.79 248.085C1585.52 249.201 1587.55 249.759 1589.89 249.759Z" fill="#FAF2E1"/>
</svg>
