<svg width="677" height="801" viewBox="0 0 677 801" fill="none" xmlns="http://www.w3.org/2000/svg">
<rect x="33" y="27" width="644" height="774" fill="#BD4363"/>
<rect width="627" height="754" fill="#D6D0C4"/>
<mask id="mask0_129_3" style="mask-type:luminance" maskUnits="userSpaceOnUse" x="178" y="561" width="322" height="133">
<path d="M178.833 561.767H499.53V693.314H178.833V561.767Z" fill="white"/>
</mask>
<g mask="url(#mask0_129_3)">
<path d="M318.267 693.842C308.284 693.392 296.462 688.329 294.436 677.508C293.467 661.644 309.263 643.41 314.098 627.849C317.474 618.84 319.51 609.39 320.802 599.871C322.26 594.573 320.586 585.485 327.427 583.938C328.934 582.626 331.626 582.9 334.709 583.184C338.447 583.527 342.763 583.87 346.345 581.392C347.892 579.835 348.665 577.504 350.73 576.506C353.646 574.831 357.561 576.711 358.285 579.953C359.156 587.973 357.561 596.15 356.964 604.17C354.645 627.614 348.665 650.46 341.286 672.768C337.811 683.903 334.17 694.116 321.956 694.116C320.792 694.116 319.568 694.028 318.257 693.842H318.267ZM468.408 677.048C474.798 677.048 480.465 673.336 483.098 667.392C491.661 650.989 495.292 632.461 497.083 614.08C497.259 597.795 495.331 581.069 491.152 565.371C489.489 561.895 484.331 561.327 482.031 564.441C479.711 567.604 479.907 571.795 478.439 575.321C475.885 576.133 473.144 576.515 470.453 576.554C469.572 575.575 468.319 575.007 467.018 574.919C464.649 571.11 459.472 572.774 458.611 576.829C458.161 584.536 458.807 592.37 457.681 600.077C455.606 617.684 451.104 634.528 444.048 650.881C437.001 667.382 452.367 676.186 466.881 676.979C467.38 677.028 467.889 677.048 468.398 677.048H468.408ZM198.064 675.922C244.708 692.667 238.513 662.545 224.88 630.777C220.779 619.104 218.891 606.775 217.599 594.495C217.197 590.764 217.344 587.013 217.276 583.263C216.698 578.777 212.872 577.338 210.141 579.052C209.847 578.924 209.544 578.826 209.201 578.748C208.937 578.689 208.683 578.65 208.419 578.631C208.193 576.388 206.618 574.263 203.603 574.067C202.967 573.793 202.312 573.509 201.656 573.235C199.356 572.265 197.046 571.306 194.922 569.984C192.955 568.691 191.243 566.742 188.786 566.468C179.41 565.871 180.487 584.144 179.498 590.597C179.117 604.209 181.994 617.713 181.984 631.316C182.209 639.825 182.571 648.355 183.599 656.787C183.99 665.15 187.435 671.672 194.736 674.795C195.774 675.246 196.88 675.608 198.074 675.922H198.064Z" fill="#D0A98A"/>
</g>
<path d="M407.357 222.782C421.352 239.987 438.303 278.042 400.007 272.92C384.387 271.363 367.769 269.366 355.662 258.359C350.73 254.011 346.815 248.517 344.006 242.475C335.413 267.681 317.092 288.99 291.431 299.185C273.521 304.766 254.26 306.764 235.577 305.325C217.315 302.886 198.906 297.011 183.472 286.709C170.426 280.04 158.584 271.109 149.159 260.307C126.708 232.418 128.401 193.413 145.313 163.692C134.87 169.137 122.764 171.389 110.902 170.263C93.902 168.549 75.1405 151.588 79.9948 133.413C82.6666 124.55 105.079 121.231 113.476 120.026C129.34 118.41 144.324 125.344 159.836 127.214C163.898 127.87 167.979 128.458 172.09 128.693C173.792 128.742 175.182 129.535 175.994 130.602C191.37 119.948 209.818 113.073 227.777 114.219C234.765 113.406 241.811 113.083 248.819 113.749C260.495 114.826 272.092 118.89 283.318 121.848C299.75 126.303 315.81 133.893 328.23 145.556C331.626 148.699 334.63 152.215 337.175 156.044C339.162 156.367 341.197 158.198 341.55 160.715C343.262 165.484 344.652 170.361 345.768 175.296C345.915 175.414 346.071 175.532 346.218 175.669C348.508 178.215 348.968 182.005 351.288 184.629C358.148 193.364 369.305 196.674 378.906 201.414C389.623 206.614 399.684 213.616 407.376 222.782H407.357Z" fill="#F8E0B4"/>
<mask id="mask1_129_3" style="mask-type:luminance" maskUnits="userSpaceOnUse" x="83" y="55" width="490" height="565">
<path d="M83.625 55.9228H572.187V619.427H83.625V55.9228Z" fill="white"/>
</mask>
<g mask="url(#mask1_129_3)">
<path d="M552.711 416.316C556.959 407.15 554.258 395.741 548.17 388.034C542.543 381.081 533.725 378.241 525.396 376.018C533.529 361.75 523.419 346.709 509.717 341.058C501.751 337.797 492.825 338.14 484.438 339.237C480.367 329.953 470.315 325.145 460.979 322.716C443.959 318.378 426.255 323.138 410.752 330.463C397.197 314.814 372.779 315.568 355.378 323.98C353.411 314.197 342.626 307.499 332.966 309.584C332.633 305.912 331.146 302.69 329.041 299.831C334.777 298.293 339.582 293.965 343.487 289.548C345.914 286.963 349.447 282.713 346.178 279.433C346.178 279.403 346.178 279.374 346.178 279.344C351.444 278.581 356.641 276.749 360.731 273.244C364.734 271.559 371.389 268.044 369.031 262.765C371.8 257.134 370.675 250.074 366.516 245.51C370.518 242.494 373.689 238.244 375.314 233.544C387.391 219.902 393.381 201.404 383.594 184.668C394.467 174.386 394.075 154.262 377.027 150.893C382.83 135.567 369.618 120.829 353.89 122.455C357.786 105.474 345.483 88.6306 327.319 92.0776C326.565 73.158 306.111 66.2443 290.98 74.6074C281.781 62.0041 267.071 55.9522 251.647 58.3024C242.271 59.693 230.742 61.4753 225.496 70.3475C207.106 65.882 184.548 72.972 176.141 90.9025C165.346 92.6652 152.398 103.888 151.83 115.081C146.878 114.581 141.779 115.943 137.453 118.44C119.739 128.487 116.098 150.815 124.848 168.246C109.697 176.648 106.996 198.084 113.123 213.018C94.9095 226.405 102.925 254.833 122.831 261.904C120.228 275.251 131.111 286.934 138.784 296.678C123.732 302.455 118.975 321.453 124.348 335.594C111.44 340.706 101.976 353.26 99.5484 366.803C97.914 376.018 101.036 385.165 104.853 393.45C80.5423 408.276 74.7289 442.384 100.968 458.669C88.5382 479.616 105.665 507.173 128.185 511.286C125.484 531.39 141.182 554.893 162.38 555.872C164.808 580.756 194.765 597.051 217.696 589.06C228.227 604.826 249.709 597.766 262.823 589.324C274.744 602.848 294.68 602.76 307.187 590.088C318.53 607.274 343.957 612.964 360.996 600.87C367.034 616.617 387.185 620.759 399.537 609.683C406.28 615.52 415.558 617.85 424.327 617.988C437.852 618.399 449.274 609.507 452.239 596.306C475.884 607.627 511.479 585.133 508.308 558.203C518.046 561.062 527.099 554.726 534.126 548.625C543.306 540.576 549.648 528.168 545.782 515.908C567.274 506.262 575.887 485.413 560.453 465.808C573.792 449.699 575.857 424.16 552.721 416.316H552.711ZM352.736 261.972C352.736 261.972 352.687 262.041 352.657 262.07C352.657 262.05 352.579 262.129 352.501 262.197C352.579 262.119 352.657 262.041 352.736 261.972ZM309.321 273.106C308.88 273.146 308.45 273.263 308.039 273.449C306.835 274.017 305.993 275.134 305.651 276.387C296.94 284.652 288.025 289.216 275.957 290.038C257.92 292.849 239.266 293.426 221.669 287.874C213.223 285.524 205.433 281.44 197.417 278.003C180.711 271.755 164.455 262.56 154.57 247.195C144.128 230.312 143.511 208.523 144.764 189.222C149.55 168.912 160.443 149.62 159.16 128.321C164.064 131.131 170.249 132.052 175.544 130.103C184.714 141.462 201.763 136.263 207.811 124.403C213.037 127.351 219.369 127.596 224.645 124.599C224.645 124.599 224.664 124.599 224.664 124.59C223.5 130.877 223.842 137.575 225.721 142.305C232.327 160.196 257.47 165.22 271.954 153.938C276.447 164.162 289.845 162.292 296.999 156.054C301.354 167.492 313.51 173.025 325.234 172.202C326.526 181.143 336.47 186.92 344.818 187.831C345.307 187.87 345.758 187.87 346.198 187.831C346.971 189.398 348.087 190.945 349.222 192.277C343.81 197.252 340.101 204.107 338.956 211.373C335.168 240.604 331.968 252.424 309.34 273.116L309.321 273.106Z" fill="white"/>
</g>
<path d="M115.53 165.171C106.076 163.888 96.7102 160.206 89.6147 153.733C78.6338 143.548 85.2498 135.812 98.374 135.881C103.101 135.822 107.76 136.586 112.448 137.163C119.269 137.947 126.11 138.397 132.883 139.475C137.287 140.082 141.681 140.699 146.026 141.707C148.806 142.07 151.82 143.783 151.693 146.956C153.905 148.856 153.22 152.137 151.644 154.213C148.737 159.951 142.836 162.713 136.758 163.77C129.8 165.122 122.606 165.964 115.521 165.171H115.53ZM410.322 258.202C405.624 252.747 398.45 250.005 392.774 245.657C383.241 239.214 376.479 229.441 366.643 223.379C357.56 217.239 347.617 219.697 345.572 231.184C345.572 234.21 346.922 237.343 348.488 239.929C349.114 241.887 349.976 243.797 351.14 245.501C361.123 259.073 378.084 267.828 394.917 268.269C400.887 268.533 414.031 266.927 410.322 258.202Z" fill="white"/>
<path d="M169.73 184.609C157.135 182.886 164.69 159.364 169.564 164.681C170.406 167.638 167.039 170.234 166.98 173.328C165.591 179.047 170.337 182.935 175.28 179.214C177.961 177.128 180.134 174.493 182.297 171.898C182.992 171.037 184.391 171.037 185.164 171.751C187.464 174.464 182.453 177.314 181.064 179.429C178.206 182.563 174.193 185.383 169.721 184.619L169.73 184.609ZM273.354 213.351C273.765 212.293 273.168 211.079 272.121 210.687C268.862 209.933 268.803 214.781 267.149 216.612C264.497 222.977 253.125 225.768 252.645 216.681C252.371 213.498 252.968 210.325 253.8 207.26C254.24 205.899 255.004 204.136 253.722 203C249.004 200.797 248.574 212.666 248.427 215.535C248.319 220.549 251.265 226.434 256.883 226.522C265.211 227.756 270.81 220.372 273.364 213.351H273.354Z" fill="#4B2708"/>
<path d="M195.157 219.021C194.726 218.953 194.335 218.845 193.943 218.708C193.669 219.658 193.004 220.568 192.514 221.371C190.185 225.318 188.081 229.382 186.006 233.456C185.438 234.552 184.039 234.983 182.972 234.425C179.468 232.545 185.487 225.68 186.368 222.987C187.455 221.557 188.707 217.924 190.459 216.475C185.321 211.069 185.683 199.455 190.479 201.345C193.601 203.304 187.758 214.849 198.719 214.82C201.665 214.947 202.937 212.088 205.198 211.05C212.969 212.274 201.832 221.626 195.176 219.041L195.157 219.021Z" fill="#4B2708"/>
<path d="M266.356 244.482C256.335 241.466 257.294 228.804 268.294 229.284C280.792 230.439 279.882 249.663 266.356 244.482ZM157.497 180.908C148.933 180.447 148.884 191.641 156.626 193.119C166.305 195.479 166.471 181.368 157.497 180.908Z" fill="#D85C7C"/>
<path d="M248.025 109.949C244.502 109.812 241.272 107.207 240.294 103.848C227.385 106.365 231.623 89.5707 238.963 85.7123C240.529 85.2423 241.723 86.8581 240.763 88.1997C240.088 89.081 239.149 89.7273 238.493 90.6479C236.77 93.1352 233.551 97.7574 236.379 100.382C237.72 101.018 239.227 100.744 240.548 100.235C244.443 99.7257 242.858 106.679 248.329 106.561C250.267 106.444 251.735 104.857 253.046 103.564C253.682 102.879 254.847 102.987 255.463 103.623C257.528 106.512 250.492 110.243 248.035 109.959L248.025 109.949ZM270.379 99.1284C267.971 98.6094 266.895 104.338 269.38 104.691C271.896 105.004 272.532 99.9314 270.379 99.1284ZM282.847 99.4515C282.651 97.0229 279.754 97.258 279.441 99.4907C279.157 101.43 278.658 103.3 277.983 105.131C277.552 106.874 275.037 109.411 277.376 110.703C280.772 111.849 282.602 101.91 282.837 99.4613L282.847 99.4515ZM201.254 103.153C200.676 102.566 200.344 101.802 200.363 100.969C200.363 99.5984 200.764 98.2764 201.244 97.0034C201.577 96.0143 202.712 94.7021 202.409 93.5171C199.11 88.1115 194.403 103.085 198.827 105.474C200.314 107.061 202.751 104.73 201.254 103.153ZM214.955 99.6474C212.47 97.6203 209.504 104.975 212.293 105.67C214.427 106.639 216.286 100.764 214.955 99.6474ZM181.817 105.611C183.911 103.613 182.042 100.793 179.654 102.801C178.235 104.612 173.4 112.975 176.64 114.16C179.566 115.051 179.82 107.521 181.817 105.611ZM302.411 132.884C302.891 130.867 304.917 127.684 302.626 126.205C299.788 125.725 300.16 129.897 299.23 131.621C298.731 133.002 297.293 134.98 299.201 135.92C301.158 136.733 301.834 134.226 302.411 132.884ZM312.169 121.515C315.946 122.582 322.132 107.54 316.035 110.302C314.42 112.505 314.557 115.884 312.423 117.872C310.436 117.607 309.213 120.428 307.089 119.762C307.138 119.781 307.197 119.801 307.246 119.83C307.275 119.83 307.305 119.83 307.324 119.83C305.602 119.155 304.77 117 304.036 115.404C303.732 114.542 302.715 114.111 301.883 114.434C298.555 116.158 304.554 123.747 307.402 123.258C309.164 123.297 310.799 122.543 312.169 121.505V121.515ZM326.712 131.405C324.451 130.837 324.432 133.795 324.383 135.322C324.686 137.731 321.251 142.931 324.04 143.92C327.035 145.526 329.345 131.817 326.712 131.405ZM342.929 140.209C343.369 139.053 343.516 137.418 342.244 136.762C340.746 136.223 339.797 137.966 339.621 139.21C339.327 140.953 337.223 143.734 339.68 144.694C342.156 145.252 342.224 141.805 342.919 140.209H342.929ZM362.992 152.812C363.364 150.707 364.949 147.524 362.718 146.016C360.242 145.066 360.447 148.582 360.095 150.09C360.125 152.45 356.464 157.366 358.979 158.629C361.955 159.432 362.101 154.712 362.992 152.812ZM359.459 172.094C364.147 176.599 369.236 169.147 370.264 164.887C370.469 163.878 370.782 162.811 370.753 161.773C370.636 159.853 368.257 159.432 367.611 161.273C367.103 162.879 367.21 164.75 366.251 166.209C365.057 167.354 364.078 170.126 362.336 170.047C362.405 170.077 362.464 170.096 362.532 170.126C358.842 166.101 358.471 169.362 354.928 171.144C353.959 171.458 353.058 170.704 352.354 170.126C348.85 168.51 348.224 173.563 353.724 174.591C355.955 174.934 357.903 173.553 359.459 172.104V172.094ZM278.512 136.449C279.001 134.745 280.567 132.238 278.737 130.867C276.535 129.976 276.084 133.021 275.575 134.48C275.292 136.821 271.445 139.954 273.726 141.893C276.613 143.059 277.425 138.29 278.512 136.458V136.449ZM260.504 132.894C261.267 131.229 265.064 127.243 261.022 127.175C258.791 127.253 252.058 139.719 256.08 140.013C258.497 140.434 259.006 134.627 260.504 132.904V132.894ZM245.882 136.498C245.716 133.305 247.056 130.338 248.319 127.488C248.965 125.677 246.9 124.462 245.598 125.814C243.024 129.907 241.067 136.086 243.357 140.601C246.596 142.138 246.185 138.564 245.892 136.507L245.882 136.498ZM124.378 201.805C124.75 198.603 125.523 195.469 126.355 192.355C126.648 190.328 130.622 183.356 125.718 185.158C123.957 186.421 118.535 204.42 122.596 203.784C123.683 203.842 124.417 202.834 124.378 201.805ZM119.259 234.621C119.68 233.416 118.809 232.182 118.721 230.968C117.811 228.383 119.494 224.76 117.644 222.762C113.015 221.92 115.335 232.085 116.137 234.533C116.587 235.923 118.711 235.972 119.259 234.621ZM129.291 239.674C128.439 237.431 129.408 234.161 127.402 232.555C123.37 231.918 125.758 238.244 125.924 240.448C126.404 242.641 129.809 241.848 129.291 239.664V239.674Z" fill="#F8E0B4"/>
<path d="M155.451 347.414C153.513 345.485 152.936 342.684 152.809 340.05C147.504 344.388 142.513 340.236 144.314 334.008C145.038 331.177 148.424 319.132 152.515 322.011C153.543 323.941 151.008 325.419 150.411 327.104C149.324 329.297 148.434 331.579 147.817 333.919C145.948 342.077 150.744 337.171 154.061 334.752C155.989 334.341 156.537 336.515 156.205 338.003C156.175 340.569 156.058 344.456 158.867 345.602C158.828 345.602 158.788 345.583 158.749 345.573C158.72 345.563 158.7 345.553 158.661 345.553C161.509 346.249 162.909 342.841 164.269 340.951C165.395 339.1 168.272 340.853 167.127 342.704C165.121 346.993 159.816 351.644 155.451 347.414ZM184.176 341.127C184.44 339.991 184.342 338.375 183.05 337.954C181.602 337.67 180.858 339.305 180.838 340.52C180.838 342.224 179.341 345.191 181.758 345.788C184.234 346.033 183.794 342.762 184.185 341.127H184.176ZM191.956 342.557C192.172 341.186 193.003 339.345 191.653 338.297C189.519 337.18 188.834 340.177 188.638 341.714C188.59 343.722 186.309 347.316 189.118 348.158C191.868 348.295 191.242 344.368 191.956 342.557ZM258.39 363.053C257.871 362.328 257.48 361.515 257.205 360.683C256.501 358.392 256.374 355.953 256.883 353.613C257.176 352.702 257.499 351.693 256.961 350.802C254.632 348.55 253.193 352.898 253.232 354.778C252.909 358.323 253.467 362.162 255.64 365.06C256.951 366.843 259.672 364.825 258.39 363.053ZM272.062 361.653C274.098 360.781 272.581 358.509 272.463 356.952C271.984 355.287 273.139 353.035 271.534 351.83C267.306 351.037 269.077 358.401 269.84 360.663C270.163 361.545 271.201 361.985 272.062 361.662V361.653ZM323.58 333.733C342.136 332.176 322.171 312.258 322.582 321.355C324.657 323.157 328.376 325.126 327.965 328.494C327.906 328.602 327.789 328.808 327.691 328.915C327.71 328.876 327.73 328.857 327.749 328.837C327.769 328.808 327.798 328.768 327.818 328.739C325.753 331.413 320.859 329.003 319.705 331.266C319.147 333.645 321.682 336.074 320.253 338.483C318.52 342.498 312.11 340.882 312.267 343.879C313.343 348.413 327.143 342.273 323.58 333.733ZM306.326 324.988C305.2 322.785 303.145 316.038 300.004 317.086C297.596 318.986 302.812 323.627 303.165 326.203C303.948 328.269 307.109 327.035 306.326 324.998V324.988ZM293.808 327.593C293.495 325.85 291.156 322.981 289.835 325.498C289.277 326.33 291.626 332.421 292.399 332.989C296.216 334.272 294.65 329.464 293.808 327.603V327.593ZM210.904 326.144C210.493 325.605 210.287 324.92 210.258 324.254C209.984 321.963 212.342 319.26 210.581 317.321C206.686 315.509 205.805 326.389 208.173 328.142C209.485 329.914 212.196 327.907 210.894 326.144H210.904ZM219.868 319.71C217.089 318.28 215.503 325.929 218.244 326.232C220.632 326.859 221.581 320.611 219.868 319.71ZM164.22 302.71C164.24 300.977 165.786 299.018 164.475 297.471C161.176 294.797 158.847 306.735 162.321 306.559C164.465 306.578 164.093 304.189 164.21 302.71H164.22ZM138.852 386.105C141.573 385.41 139.89 381.483 140.79 379.417C141.338 376.538 142.033 373.668 143.031 370.907C143.433 370.084 143.795 369.134 143.394 368.243C138.852 363.738 136.729 381.963 137.032 384.587C137.071 385.498 137.991 386.183 138.852 386.095V386.105ZM149.589 384.146C149.814 380.445 151.086 376.831 151.311 373.169C151.125 371.827 149.569 371.191 148.63 372.258C147.533 373.6 147.661 375.558 147.181 377.174C147.201 379.554 144.646 384.46 147.631 385.547C148.512 385.694 149.491 385.067 149.589 384.146ZM202.017 400.745C203.603 399.257 201.264 396.809 199.707 398.317C198.65 399.1 197.545 400.363 196.116 400.207C196.194 400.207 196.253 400.226 196.331 400.226C192.827 399.746 193.972 392.656 189.881 394.047C180.192 403.673 178.812 395.506 180.819 386.144C181.044 385.038 181.641 384 181.709 382.864C181.817 381.062 179.693 380.68 178.715 381.992C173.762 391.52 177.237 410.009 190.234 398.121C190.341 398.434 190.449 398.728 190.576 399.022C191.261 400.667 192.416 402.146 193.982 403.017C196.83 404.75 199.913 402.723 201.998 400.745H202.017ZM245.324 397.612C243.964 395.673 241.752 397.709 242.486 399.56C242.956 401.783 243.181 404.065 243.289 406.337C243.572 408.119 242.104 411.429 244.776 411.752C248.368 411.742 246.381 399.786 245.324 397.612ZM262.07 406.964C261.541 404.829 261.874 393.097 257.754 397.572C257.274 400.735 258.536 404.075 258.674 407.287C258.879 409.49 262.295 409.157 262.07 406.964ZM317.6 394.145C329.335 396.299 326.389 382.168 320.791 376.939C318.06 373.805 315.389 377.282 318.618 379.671C320.703 382.56 323.649 386.742 321.789 390.336V390.326C319.881 392.118 317.375 389.503 315.457 390.688C314.273 391.638 314.478 393.401 313.921 394.703C312.501 398.63 307.833 400.285 303.977 399.521C299.348 395.163 297.997 401.196 303.184 402.86C309.331 404.32 316.524 400.696 317.62 394.155L317.6 394.145ZM353.998 379.358C355.906 377.468 356.494 374.745 356.914 372.19C372.397 373.414 372.427 358.578 362.376 350.871C360.81 349.245 356.474 350.146 358.451 352.702C362.238 354.181 364.441 357.824 365.684 361.584C367.983 367.842 360.262 369.35 355.711 368.762C352.598 369.81 353.92 374.158 352.031 376.322C351.218 377.948 348.008 378.046 348.762 380.327C349.907 382.727 352.735 380.553 354.008 379.348L353.998 379.358ZM140.272 441.121C139.909 439.799 139.949 438.418 140.046 437.076C140.575 433.228 141.231 429.683 142.532 425.942C142.904 425.188 143.129 424.326 142.767 423.533C138.324 418.539 135.633 439.573 137.003 441.885C137.492 444.01 140.771 443.226 140.272 441.131V441.121ZM154.081 453.411C153.552 451.432 153.249 449.396 153.063 447.349C152.192 444.254 154.061 436.792 152.368 435.265C147.054 433.189 149.931 451.57 150.773 454.174C151.272 456.339 154.6 455.536 154.081 453.411ZM153.719 478.627C160.942 482.466 165.189 473.094 163.868 467.072C163.623 465.554 163.467 463.282 161.529 463.115C158.808 463.624 160.746 467.062 160.57 468.864C160.589 471.449 159.914 476.492 156.391 475.954C155.118 475.601 153.817 475.102 153.092 473.936C152.055 472.742 149.931 473.74 150.127 475.288C150.558 477.442 150.421 479.949 148.561 481.408C146.653 482.818 143.257 483.68 141.485 481.643C138.03 479.704 137.336 484.424 141.798 485.883C146.848 487.45 153.229 484.189 153.719 478.617V478.627ZM222.208 490.77C218.635 489.272 215.758 501.444 207.928 494.814C205.834 492.542 203.808 489.144 201.234 493.159C196.781 497.302 191.946 491.074 192.68 486.451C192.72 485.413 191.858 484.013 190.664 484.454C185.164 489.399 195.489 503.863 203.828 495.402C205.687 497.742 208.212 499.789 211.276 500.102C214.574 501.611 225.75 493.6 222.208 490.79V490.77ZM224.429 466.768C223.343 463.869 223.157 453.606 220.397 452.921C216.306 452.774 221.19 464.829 221.17 467.522C221.64 469.647 224.938 468.864 224.439 466.768H224.429ZM233.551 467.972C233.149 463.899 233.051 459.717 232.092 455.732C231.632 454.596 229.998 454.028 229.274 455.232C228.393 459.247 230.252 464.016 230.203 468.296C230.399 470.46 233.766 470.127 233.551 467.972ZM290.168 462.733C300.894 462.959 296.598 444.284 292.575 449.131C291.91 451.197 293.701 453.205 293.574 455.33C293.632 459.678 290.344 459.267 287.271 459.13C283.816 461.108 291.313 467.698 282.27 471.89C279.588 472.516 276.241 471.175 274.734 468.864C269.831 465.906 270.731 474.534 280.479 475.542C286.85 475.807 291.802 468.726 290.168 462.733ZM334.747 458.865C344.338 456.926 342.342 440.474 334.199 437.928C330.793 438.251 332.77 441.091 334.679 442.022C338.339 445.253 339.67 456.192 332.653 455.359C329.227 456.662 332.819 461.402 330.96 463.908C329.433 466.67 326.144 468.276 323.042 467.6C320.869 467.218 320.321 470.577 322.474 470.959C329.482 472.604 336.499 465.965 334.747 458.855V458.865ZM380.922 423.523C379.366 420.918 374.903 410.626 372.065 410.695C370.009 411.194 371.096 413.681 371.996 414.778C374.09 418.167 376.234 421.535 377.966 425.129C378.964 427.058 381.979 425.413 380.922 423.523ZM391.775 414.083C390.288 411.488 389.975 404.584 386.725 404.153C383.261 405.191 388.301 412.771 388.624 415.287C389.387 417.334 392.558 416.12 391.775 414.083ZM440.69 376.498C457.152 380.846 454.323 360.585 443.186 356.022C441.013 355.082 439.369 357.706 441.532 358.999C446.181 360.801 452.934 370.721 446.249 373.502C443.548 374.207 440.866 372.238 438.322 373.002C434.75 375.95 441.972 387.29 430.776 387.77C426.734 386.007 425.433 390.316 429.68 391.119C438.136 392.627 442.481 383.774 440.671 376.489L440.69 376.498ZM434.867 426.069C442.971 424.845 438.449 410.793 435.053 406.582C433.076 404.888 431.217 407.326 432.743 409.138C434.339 410.89 438.351 423.376 433.947 422.417C433.428 420.664 430.747 420.478 430.424 422.426C431.314 425.472 432.107 428.664 431.119 431.925C430.532 437.253 424.747 439.348 420.216 437.429C416.458 436.851 417.153 441.385 422.056 441.444C431.373 442.981 435.973 434.285 434.877 426.069H434.867ZM380.266 477.56C380.325 475.043 376.576 458.033 372.887 464.271C374.394 468.648 376.704 473.035 376.929 477.863C377.124 480.037 380.481 479.704 380.266 477.55V477.56ZM390.562 462.322C390.014 460.422 387.176 460.275 387.166 462.518C387.332 464.153 388.056 465.71 388.281 467.355C389.378 469.725 388.448 478.911 391.12 478.627C395.152 478.735 391.237 464.839 390.562 462.332V462.322ZM308.714 515.027C316.074 526.416 329.286 513.528 323.159 504.127C321.466 502.58 319.059 497.811 316.446 499.907C314.097 503.559 327.319 505.831 318.07 515.477C311.816 518.532 311.474 508.573 307.735 510.042C305.406 512.696 304.555 516.789 301.256 518.758C295.228 522.273 289.776 515.007 291.812 509.268C292.008 507.927 293.192 506.673 292.634 505.283C292.155 504.088 290.422 504.362 289.757 505.224C285.734 511.58 288.563 522.107 296.784 522.998C302.255 523.899 306.346 519.404 308.714 515.017V515.027ZM250.707 532.585C251.05 530.666 249.748 528.746 249.65 526.778C248.838 524.291 250.051 519.6 246.949 518.699C243.386 519.061 247.047 530.098 247.605 532.497C248.055 533.878 250.169 533.917 250.707 532.585ZM262.725 527.042C262.637 524.996 262.647 516.3 259.094 520.55C258.713 524.751 259.593 529.118 259.554 533.368C259.525 534.622 259.525 536.532 261.238 536.571C264.595 536.336 262.334 529.432 262.725 527.042ZM199.893 526.181C196.615 524.859 195.391 533.437 187.718 529.608C185.135 528.619 184.166 524.966 181.328 524.761C171.981 530.793 164.993 525.475 167.792 514.674C167.704 512.559 171.639 509.033 168.487 507.995C165.375 508.133 164.954 512.5 164.24 514.88C161.196 526.7 170.621 534.788 181.465 528.57C182.287 529.5 183.079 530.45 184.039 531.243C185.986 532.849 188.433 533.907 190.978 533.936C194.021 534.514 203.103 529.588 199.893 526.181ZM202.223 549.693C201.479 548.028 201.919 546.03 201.029 544.444C197.055 541.301 198.024 548.968 199.062 550.888C199.835 552.944 202.986 551.73 202.213 549.693H202.223ZM212.861 550.76C212.264 548.518 213.39 543.572 211.285 542.427C207.84 542.055 209.289 547.088 209.22 549.164C209.69 551.887 209.25 555.197 210.698 557.566C214.965 559.358 212.793 552.934 212.861 550.76ZM323.502 578.777C323.414 577.876 322.572 577.142 321.652 577.25C318.139 577.622 314.615 576.927 311.19 576.202C303.165 574.332 305.23 570.052 301.628 567.144C298.134 567.261 300.62 572.02 301.628 573.695C303.752 577.279 307.735 579.179 311.728 579.864C314.351 580.09 323.159 582.665 323.502 578.787V578.777ZM391.032 546.598C389.172 544.689 388.223 540.742 385.326 540.429C382.028 542.162 386.823 545.835 387.753 547.872C389.857 550.398 391.1 553.904 393.586 555.951C399.282 555.921 392.01 548.714 391.032 546.598ZM112.643 429.967C112.526 425.795 113.407 421.643 114.258 417.569C114.336 414.788 117.801 410.528 116.715 408.57C111.126 405.269 109.002 426.804 109.296 430.27C109.453 432.454 112.888 432.121 112.643 429.957V429.967ZM117.967 456.74C117.214 454.586 118.535 451.54 116.666 449.954C112.017 448.544 114.698 461.979 116.881 463.184C121.158 463.948 118.104 458.846 117.967 456.74ZM503.708 376.43C503.16 373.678 484.78 356.521 486.699 365.511C491.866 369.036 497.239 372.65 500.733 378.055C501.8 380.004 504.775 378.339 503.708 376.43ZM490.701 393.978C488.891 391.697 483.635 383.637 480.464 386.722C479.642 388.632 482.118 389.464 483.185 390.512C484.937 392.186 486.591 393.978 487.961 395.996C489.243 397.788 491.993 395.751 490.692 393.978H490.701ZM474.612 437.067C476.569 433.247 476.148 428.606 474.367 424.806C482.745 419.88 475.375 409.187 468.417 407.042C466.44 406.259 464.884 408.668 466.694 409.97C469.19 411.351 471.93 412.653 473.516 415.16C475.414 417.745 474.915 422.27 471.049 422.064C470.022 422.475 469.601 423.778 470.276 424.688C476.256 432.836 468.006 437.762 470.961 439.848C472.87 440.925 473.887 438.408 474.612 437.067ZM450.477 477.432C453.404 475.679 448.96 469.872 447.982 467.591C447.424 466.709 446.788 465.867 445.965 465.211C444.409 463.899 442.021 465.554 443.382 467.365C445.77 469.902 447.062 473.231 448.295 476.453C448.628 477.325 449.626 477.755 450.477 477.432ZM468.231 465.681C467.193 464.124 466.009 461.029 463.65 462.067C461.722 463.664 464.512 465.779 465.158 467.365C466.244 469.383 469.346 467.669 468.231 465.681ZM523.938 447.976C523.282 445.097 521.295 430.975 517.84 431.563C515.335 432.787 517.743 435.931 518.036 437.86C519.034 441.297 520.091 444.734 520.591 448.289C520.796 450.463 524.163 450.12 523.938 447.966V447.976ZM511.019 456.711C509.884 454.468 509.316 447.182 505.92 447.682C503.268 449.425 507.535 455.056 507.789 457.7C508.435 459.649 511.557 458.699 511.029 456.721L511.019 456.711ZM501.379 509.513C506.468 508.172 510.246 503.706 510.422 498.389C519.7 501.944 520.189 486.197 517.312 481.114C513.583 479.224 515.081 484.738 515.218 486.657C515.218 501.571 511.959 492.425 507.868 495.02C505.734 501.15 507.32 504.098 499.382 506.585C498.11 506.977 496.016 506.948 496.172 508.808C496.642 511.384 499.735 509.915 501.389 509.513H501.379ZM473.741 517.152C477.636 516.358 473.016 503.001 472.233 500.151C471.685 498.193 468.847 497.987 468.867 500.318C468.935 501.493 469.474 502.257 469.748 503.461V503.442C469.748 503.442 469.748 503.442 469.748 503.432C470.452 506.027 471.02 508.652 471.46 511.305C471.46 511.247 471.441 511.198 471.431 511.149V511.119C471.656 512.627 471.842 514.135 471.92 515.644C471.969 516.574 472.87 517.25 473.76 517.171L473.741 517.152ZM466.371 520.99C466.038 517.886 465.246 511.266 461.762 510.414C458.013 510.953 463.778 518.366 462.995 521.304C463.181 523.497 466.567 523.174 466.361 520.99H466.371ZM403.882 519.091C411.75 522.92 416.389 512.529 412.504 506.468C411.398 504.774 410.273 501.297 407.718 501.934C404.175 503.853 415.058 511.315 408.305 516.251C406.505 516.868 404.175 515.908 403.158 514.341C401.484 512.774 399.605 514.938 400.349 516.74C401.601 523.439 396.913 524.486 391.501 522.763C390.63 522.528 389.691 522.998 389.417 523.879C389.025 526.944 393.733 526.416 395.749 526.856C400.388 527.61 404.087 523.585 403.872 519.091H403.882ZM364.92 542.437C364.284 539.215 364.812 527.943 361.612 527.033C359.518 527.013 359.919 529.618 360.242 530.979C360.8 534.886 361.299 538.803 361.544 542.75C361.72 544.943 365.126 544.601 364.91 542.437H364.92ZM348.341 549.869C347.813 547.029 347.49 539.753 344.651 538.657C340.629 539.029 345.464 547.441 344.984 550.183C345.18 552.376 348.566 552.043 348.351 549.869H348.341ZM349.32 577.749C348.997 575.556 350.416 572.285 348.155 570.904C344.73 570.483 346.159 575.761 345.924 577.847C346.061 579.904 349.32 579.806 349.33 577.749H349.32ZM381.587 577.504C379.356 576.741 377.858 580.991 380.227 581.676C382.527 582.352 383.535 578.464 381.587 577.504ZM259.28 571.864C257.685 570.072 253.741 561.552 251.177 565.587C251.578 568.71 255.18 570.953 256.501 573.901C257.793 575.703 260.582 573.656 259.271 571.864H259.28ZM446.827 570.424C450.849 572.04 456.888 570.258 456.77 565.214C457.455 562.473 448.98 548.332 448.001 555.755C449.518 558.585 454.265 562.796 452.983 566.399C453.022 566.331 453.061 566.282 453.09 566.204C449.234 570.747 443.754 561.591 443.127 571.521C442.706 574.782 439.398 578.797 435.895 576.838C432.371 576.261 432.91 580.305 436.639 580.765C442.511 581.539 446.435 575.722 446.817 570.434L446.827 570.424ZM498.11 544.444C497.073 542.74 495.967 538.167 493.129 539.45C491.69 540.723 493.226 542.505 493.872 543.759C494.871 545.169 495.125 547.255 496.554 548.263C499.147 549.096 499.304 545.991 498.11 544.454V544.444ZM511.097 534.955C509.796 532.928 508.543 528.266 505.421 529.324C503.62 530.715 505.9 532.693 506.634 534.034C508.514 536.776 509.179 540.811 511.058 543.484C516.451 544.797 511.939 537.129 511.107 534.955H511.097ZM552.956 481.81C556.293 479.91 549.765 471.615 548.062 469.618C544.04 464.839 541.476 468.883 546.271 472.771C548.307 475.141 549.804 477.893 550.803 480.85C551.116 481.712 552.134 482.143 552.966 481.819L552.956 481.81ZM546.888 496.616C544.862 494.07 541.437 487.01 537.796 487.724C536.269 488.43 537.189 490.427 538.285 491.113C540.389 493.287 542.269 495.715 543.864 498.271C544.95 500.24 547.984 498.555 546.888 496.616Z" fill="#F8E0B4"/>
<path d="M249.033 346.817C230.428 338.444 206.588 344.554 189.402 353.955C182.443 346.151 177.579 336.348 168.908 330.188C153.728 321.208 125.102 309.898 115.53 331.51C114.552 334.164 113.7 336.799 112.966 339.403C111.048 344.515 110.05 350.029 109.736 355.326C108.856 361.271 110.059 366.764 113.025 370.858C117.615 380.239 128.234 384.998 147.201 381.062C157.77 379.054 167.195 373.884 176.786 369.213C172.48 374.559 168.712 381.238 165.854 386.066C155.529 404.839 149.814 425.687 140.037 444.715C133.186 456.045 126.873 467.581 121.96 479.91C120.913 481.486 120.688 483.102 121.03 484.512C120.512 486.843 121.97 490.045 126.638 491.788C132.06 494.854 136.161 490.701 137.296 485.492C139.958 477.922 142.708 470.509 145.684 463.008C154.384 439.358 164.142 416.139 174.741 393.273C175.886 391.374 177.07 389.484 178.313 387.613C178.284 389.102 178.235 390.59 178.157 392.069C177.648 394.204 177.129 396.348 176.649 398.503C174.653 407.022 174.663 415.738 174.643 424.453C173.772 433.316 173.459 442.266 171.247 450.943C170.591 456.858 160.687 480.625 160.158 492.131C159.405 495.177 159.043 498.242 162.419 499.486C164.171 499.916 165.385 499.486 166.246 498.575C171.55 497.507 173.42 489.801 174.301 484.777C176.561 476.864 177.305 468.668 178.352 460.55C178.489 459.531 178.626 458.513 178.783 457.504C180.554 451.09 181.474 445.498 181.993 439.809C182.394 437.801 182.796 435.784 183.187 433.786C183.187 433.786 183.187 433.776 183.187 433.766C183.667 432.395 183.872 430.731 183.99 429.027C184.733 425.619 185.624 421.643 185.037 418.979C186.564 406.121 187.474 393.166 189.323 380.337C189.813 379.093 189.969 377.693 189.842 376.381C189.871 376.214 189.901 376.038 189.93 375.872C192.857 382.139 198.846 386.164 203.759 390.796C213.889 400.951 228.588 411.782 243.543 405.984C251.167 402.743 254.377 394.331 257.705 387.329C264.653 373.893 263.929 354.396 249.024 346.817H249.033ZM129.222 330.345C138.06 328.964 149.393 332.578 157.144 336.799C160.834 339.668 163.095 343.908 166.04 347.463C169.055 351.36 172.764 354.7 175.426 358.881C160.237 361.995 145.987 369.428 130.269 369.976C125.141 370.241 121.784 368.938 119.778 366.5C118.192 362.789 118.036 357.97 118.691 352.526C119.2 349.461 119.602 346.004 120.277 342.615C122.029 337.611 124.789 333.068 129.212 330.345H129.222ZM193.424 362.005C194.139 362.054 194.902 361.966 195.704 361.692C207.899 358.274 231.691 350.41 242.858 357.99C250.129 362.818 251.999 371.935 249.748 379.994C247.399 389.963 241.771 398.953 230.36 393.92C216.913 388.7 205.472 378.849 196.85 367.411C196.057 365.883 195.068 364.032 193.718 363.004C193.62 362.681 193.522 362.338 193.434 362.005H193.424Z" fill="#D85C7C"/>
</svg>
